UbuntuMono-R.ufo
<glyph name="hyphen" format="2">
	<unicode hex="002D"/>
	<advance width="500"/>
	<outline>
		<contour>
			<point x="140" y="215" type="line"/>
			<point x="360" y="215" type="line"/>
			<point x="360" y="293" type="line"/>
			<point x="140" y="293" type="line"/>
		</contour>
	</outline>
</glyph>
<glyph name="D" format="2">
	<unicode hex="0044"/>
	<advance width="500"/>
	<outline>
		<contour>
			<point x="460" y="310" type="curve" smooth="yes"/>
			<point x="460" y="538"/>
			<point x="339" y="625"/>
			<point x="179" y="625" type="curve" smooth="yes"/>
			<point x="138" y="625"/>
			<point x="96" y="620"/>
			<point x="54" y="610" type="curve"/>
			<point x="54" y="10" type="line"/>
			<point x="96" y="0"/>
			<point x="138" y="-5"/>
			<point x="179" y="-5" type="curve" smooth="yes"/>
			<point x="339" y="-5"/>
			<point x="460" y="81"/>
		</contour>
		<contour>
			<point x="136" y="69" type="curve"/>
			<point x="136" y="551" type="line"/>
			<point x="149" y="553"/>
			<point x="167" y="554"/>
			<point x="184" y="554" type="curve" smooth="yes"/>
			<point x="310" y="554"/>
			<point x="376" y="477"/>
			<point x="376" y="310" type="curve" smooth="yes"/>
			<point x="376" y="136"/>
			<point x="306" y="66"/>
			<point x="187" y="66" type="curve" smooth="yes"/>
			<point x="171" y="66"/>
			<point x="153" y="67"/>
		</contour>
	</outline>
</glyph>
<glyph name="W" format="2">
	<unicode hex="0057"/>
	<advance width="500"/>
	<outline>
		<contour>
			<point x="249" y="308" type="line"/>
			<point x="346" y="0" type="line"/>
			<point x="422" y="0" type="line"/>
			<point x="444" y="165"/>
			<point x="459" y="396"/>
			<point x="468" y="619" type="curve"/>
			<point x="388" y="619" type="line"/>
			<point x="377" y="102" type="line"/>
			<point x="285" y="384" type="line"/>
			<point x="213" y="384" type="line"/>
			<point x="123" y="102" type="line"/>
			<point x="112" y="619" type="line"/>
			<point x="32" y="619" type="line"/>
			<point x="41" y="398"/>
			<point x="53" y="164"/>
			<point x="76" y="0" type="curve"/>
			<point x="153" y="0" type="line"/>
		</contour>
	</outline>
</glyph>
<glyph name="Z" format="2">
	<unicode hex="005A"/>
	<advance width="500"/>
	<outline>
		<contour>
			<point x="447" y="619" type="line"/>
			<point x="69" y="619" type="line"/>
			<point x="69" y="549" type="line"/>
			<point x="352" y="549" type="line"/>
			<point x="257" y="413"/>
			<point x="138" y="223"/>
			<point x="54" y="54" type="curve"/>
			<point x="54" y="0" type="line"/>
			<point x="455" y="0" type="line"/>
			<point x="455" y="70" type="line"/>
			<point x="148" y="70" type="line"/>
			<point x="225" y="218"/>
			<point x="363" y="437"/>
			<point x="447" y="555" type="curve"/>
		</contour>
	</outline>
</glyph>
<glyph name="backslash" format="2">
	<unicode hex="005C"/>
	<advance width="500"/>
	<outline>
		<contour>
			<point x="346" y="-165" type="line"/>
			<point x="430" y="-165" type="line"/>
			<point x="153" y="699" type="line"/>
			<point x="70" y="699" type="line"/>
		</contour>
	</outline>
</glyph>
<glyph name="o" format="2">
	<unicode hex="006F"/>
	<advance width="500"/>
	<outline>
		<contour>
			<point x="460" y="232" type="curve" smooth="yes"/>
			<point x="460" y="379"/>
			<point x="372" y="475"/>
			<point x="249" y="475" type="curve" smooth="yes"/>
			<point x="128" y="475"/>
			<point x="40" y="379"/>
			<point x="40" y="232" type="curve" smooth="yes"/>
			<point x="40" y="86"/>
			<point x="128" y="-11"/>
			<point x="249" y="-11" type="curve" smooth="yes"/>
			<point x="372" y="-11"/>
			<point x="460" y="86"/>
		</contour>
		<contour>
			<point x="375" y="232" type="curve" smooth="yes"/>
			<point x="375" y="128"/>
			<point x="326" y="63"/>
			<point x="249" y="63" type="curve" smooth="yes"/>
			<point x="174" y="63"/>
			<point x="125" y="128"/>
			<point x="125" y="232" type="curve" smooth="yes"/>
			<point x="125" y="337"/>
			<point x="174" y="402"/>
			<point x="249" y="402" type="curve" smooth="yes"/>
			<point x="326" y="402"/>
			<point x="375" y="337"/>
		</contour>
	</outline>
</glyph>
<glyph name="questiondown" format="2">
	<unicode hex="00BF"/>
	<advance width="500"/>
	<outline>
		<contour>
			<point x="246" y="243" type="line"/>
			<point x="245" y="125"/>
			<point x="92" y="96"/>
			<point x="92" y="-23" type="curve" smooth="yes"/>
			<point x="92" y="-88"/>
			<point x="126" y="-170"/>
			<point x="261" y="-170" type="curve" smooth="yes"/>
			<point x="318" y="-170"/>
			<point x="370" y="-155"/>
			<point x="410" y="-134" type="curve"/>
			<point x="387" y="-70" type="line"/>
			<point x="349" y="-90"/>
			<point x="311" y="-100"/>
			<point x="271" y="-100" type="curve" smooth="yes"/>
			<point x="210" y="-100"/>
			<point x="177" y="-66"/>
			<point x="177" y="-16" type="curve" smooth="yes"/>
			<point x="177" y="78"/>
			<point x="318" y="108"/>
			<point x="318" y="223" type="curve"/>
			<point x="317" y="243" type="line"/>
		</contour>
		<contour>
			<point x="274" y="465" type="curve" smooth="yes"/>
			<point x="238" y="465"/>
			<point x="207" y="438"/>
			<point x="207" y="397" type="curve" smooth="yes"/>
			<point x="207" y="356"/>
			<point x="238" y="330"/>
			<point x="274" y="330" type="curve" smooth="yes"/>
			<point x="311" y="330"/>
			<point x="341" y="356"/>
			<point x="341" y="397" type="curve" smooth="yes"/>
			<point x="341" y="438"/>
			<point x="311" y="465"/>
		</contour>
	</outline>
</glyph>
<glyph name="uni01BE" format="2">
	<unicode hex="01BE"/>
	<advance width="500"/>
	<outline>
		<contour>
			<point x="242" y="608" type="line"/>
			<point x="160" y="594" type="line"/>
			<point x="160" y="464" type="line"/>
			<point x="62" y="464" type="line"/>
			<point x="62" y="395" type="line"/>
			<point x="160" y="395" type="line"/>
			<point x="160" y="362" type="line" smooth="yes"/>
			<point x="160" y="156"/>
			<point x="380" y="226"/>
			<point x="380" y="116" type="curve" smooth="yes"/>
			<point x="380" y="77"/>
			<point x="341" y="59"/>
			<point x="265" y="59" type="curve" smooth="yes"/>
			<point x="208" y="59"/>
			<point x="156" y="75"/>
			<point x="110" y="96" type="curve"/>
			<point x="94" y="21" type="line"/>
			<point x="142" y="0"/>
			<point x="195" y="-11"/>
			<point x="258" y="-11" type="curve" smooth="yes"/>
			<point x="398" y="-11"/>
			<point x="462" y="37"/>
			<point x="462" y="121" type="curve" smooth="yes"/>
			<point x="462" y="294"/>
			<point x="242" y="216"/>
			<point x="242" y="364" type="curve" smooth="yes"/>
			<point x="242" y="395" type="line"/>
			<point x="430" y="395" type="line"/>
			<point x="430" y="464" type="line"/>
			<point x="242" y="464" type="line"/>
		</contour>
	</outline>
</glyph>
<glyph name="dotlessj" format="2">
	<unicode hex="0237"/>
	<advance width="500"/>
	<outline>
		<contour>
			<point x="302" y="395" type="line"/>
			<point x="302" y="4" type="line" smooth="yes"/>
			<point x="302" y="-75"/>
			<point x="263" y="-96"/>
			<point x="210" y="-96" type="curve" smooth="yes"/>
			<point x="173" y="-96"/>
			<point x="129" y="-83"/>
			<point x="96" y="-67" type="curve"/>
			<point x="71" y="-137" type="line"/>
			<point x="116" y="-159"/>
			<point x="170" y="-170"/>
			<point x="220" y="-170" type="curve" smooth="yes"/>
			<point x="307" y="-170"/>
			<point x="384" y="-124"/>
			<point x="384" y="5" type="curve" smooth="yes"/>
			<point x="384" y="464" type="line"/>
			<point x="114" y="464" type="line"/>
			<point x="114" y="395" type="line"/>
		</contour>
	</outline>
</glyph>
<glyph name="uni023F" format="2">
	<unicode hex="023F"/>
	<advance width="500"/>
	<outline>
		<contour>
			<point x="350" y="116" type="curve" smooth="yes"/>
			<point x="350" y="80"/>
			<point x="296" y="71"/>
			<point x="234" y="71" type="curve" smooth="yes"/>
			<point x="191" y="71"/>
			<point x="147" y="74"/>
			<point x="91" y="96" type="curve"/>
			<point x="63" y="23" type="line"/>
			<point x="113" y="2"/>
			<point x="147" y="-49"/>
			<point x="195" y="-89" type="curve" smooth="yes"/>
			<point x="251" y="-137"/>
			<point x="280" y="-165"/>
			<point x="377" y="-165" type="curve" smooth="yes"/>
			<point x="391" y="-165"/>
			<point x="418" y="-163"/>
			<point x="433" y="-159" type="curve"/>
			<point x="425" y="-92" type="line"/>
			<point x="411" y="-95"/>
			<point x="395" y="-96"/>
			<point x="384" y="-96" type="curve" smooth="yes"/>
			<point x="313" y="-96"/>
			<point x="271" y="-73"/>
			<point x="239" y="-45" type="curve" smooth="yes"/>
			<point x="184" y="4" type="line"/>
			<point x="198" y="3"/>
			<point x="209" y="2"/>
			<point x="230" y="2" type="curve" smooth="yes"/>
			<point x="373" y="2"/>
			<point x="430" y="49"/>
			<point x="430" y="121" type="curve" smooth="yes"/>
			<point x="430" y="276"/>
			<point x="154" y="261"/>
			<point x="154" y="346" type="curve" smooth="yes"/>
			<point x="154" y="387"/>
			<point x="190" y="405"/>
			<point x="263" y="405" type="curve" smooth="yes"/>
			<point x="315" y="405"/>
			<point x="374" y="393"/>
			<point x="396" y="381" type="curve"/>
			<point x="410" y="455" type="line"/>
			<point x="371" y="467"/>
			<point x="313" y="475"/>
			<point x="262" y="475" type="curve" smooth="yes"/>
			<point x="133" y="475"/>
			<point x="74" y="419"/>
			<point x="74" y="344" type="curve" smooth="yes"/>
			<point x="74" y="185"/>
			<point x="350" y="217"/>
		</contour>
	</outline>
</glyph>
<glyph name="ring" format="2">
	<unicode hex="02DA"/>
	<advance width="500"/>
	<outline>
		<contour>
			<point x="342" y="605" type="curve" smooth="yes"/>
			<point x="342" y="661"/>
			<point x="299" y="696"/>
			<point x="250" y="696" type="curve" smooth="yes"/>
			<point x="201" y="696"/>
			<point x="158" y="661"/>
			<point x="158" y="605" type="curve" smooth="yes"/>
			<point x="158" y="548"/>
			<point x="201" y="513"/>
			<point x="250" y="513" type="curve" smooth="yes"/>
			<point x="299" y="513"/>
			<point x="342" y="548"/>
		</contour>
		<contour>
			<point x="297" y="605" type="curve" smooth="yes"/>
			<point x="297" y="573"/>
			<point x="276" y="555"/>
			<point x="250" y="555" type="curve" smooth="yes"/>
			<point x="224" y="555"/>
			<point x="203" y="573"/>
			<point x="203" y="605" type="curve" smooth="yes"/>
			<point x="203" y="636"/>
			<point x="224" y="654"/>
			<point x="250" y="654" type="curve" smooth="yes"/>
			<point x="276" y="654"/>
			<point x="297" y="636"/>
		</contour>
	</outline>
</glyph>
<glyph name="hungarumlaut" format="2">
	<unicode hex="02DD"/>
	<advance width="500"/>
	<outline>
		<contour>
			<point x="203" y="693" type="line"/>
			<point x="100" y="550" type="line"/>
			<point x="143" y="518" type="line"/>
			<point x="253" y="643" type="line"/>
		</contour>
		<contour>
			<point x="350" y="693" type="line"/>
			<point x="247" y="550" type="line"/>
			<point x="290" y="518" type="line"/>
			<point x="400" y="643" type="line"/>
		</contour>
	</outline>
</glyph>
<glyph name="uni0394" format="2">
	<unicode hex="0394"/>
	<advance width="500"/>
	<outline>
		<contour>
			<point x="491" y="0" type="line"/>
			<point x="449" y="171"/>
			<point x="370" y="432"/>
			<point x="299" y="619" type="curve"/>
			<point x="204" y="619" type="line"/>
			<point x="125" y="411"/>
			<point x="71" y="238"/>
			<point x="9" y="0" type="curve"/>
		</contour>
		<contour>
			<point x="253" y="547" type="curve"/>
			<point x="275" y="482"/>
			<point x="335" y="297"/>
			<point x="388" y="70" type="curve"/>
			<point x="109" y="70" type="line"/>
			<point x="163" y="297"/>
			<point x="228" y="481"/>
		</contour>
	</outline>
</glyph>
<glyph name="Chi" format="2">
	<unicode hex="03A7"/>
	<advance width="500"/>
	<outline>
		<contour>
			<point x="472" y="0" type="line"/>
			<point x="425" y="111"/>
			<point x="363" y="226"/>
			<point x="299" y="330" type="curve"/>
			<point x="463" y="619" type="line"/>
			<point x="374" y="619" type="line"/>
			<point x="245" y="382" type="line"/>
			<point x="123" y="619" type="line"/>
			<point x="32" y="619" type="line"/>
			<point x="194" y="326" type="line"/>
			<point x="128" y="221"/>
			<point x="66" y="98"/>
			<point x="22" y="0" type="curve"/>
			<point x="112" y="0" type="line"/>
			<point x="152" y="91"/>
			<point x="199" y="196"/>
			<point x="246" y="270" type="curve"/>
			<point x="301" y="188"/>
			<point x="351" y="72"/>
			<point x="381" y="0" type="curve"/>
		</contour>
	</outline>
</glyph>
<glyph name="afii10024" format="2">
	<unicode hex="0416"/>
	<advance width="500"/>
	<outline>
		<contour>
			<point x="287" y="0" type="line"/>
			<point x="287" y="300" type="line"/>
			<point x="339" y="235"/>
			<point x="383" y="106"/>
			<point x="414" y="0" type="curve"/>
			<point x="497" y="0" type="line"/>
			<point x="465" y="116"/>
			<point x="402" y="257"/>
			<point x="346" y="330" type="curve"/>
			<point x="393" y="421"/>
			<point x="437" y="502"/>
			<point x="486" y="619" type="curve"/>
			<point x="404" y="619" type="line"/>
			<point x="365" y="518"/>
			<point x="327" y="429"/>
			<point x="287" y="354" type="curve"/>
			<point x="287" y="619" type="line"/>
			<point x="213" y="619" type="line"/>
			<point x="213" y="352" type="line"/>
			<point x="172" y="428"/>
			<point x="134" y="517"/>
			<point x="96" y="619" type="curve"/>
			<point x="14" y="619" type="line"/>
			<point x="63" y="502"/>
			<point x="106" y="421"/>
			<point x="154" y="330" type="curve"/>
			<point x="98" y="257"/>
			<point x="35" y="116"/>
			<point x="4" y="0" type="curve"/>
			<point x="86" y="0" type="line"/>
			<point x="117" y="107"/>
			<point x="161" y="237"/>
			<point x="213" y="301" type="curve"/>
			<point x="213" y="0" type="line"/>
		</contour>
	</outline>
</glyph>
<glyph name="afii10077" format="2">
	<unicode hex="043B"/>
	<advance width="500"/>
	<outline>
		<contour>
			<point x="346" y="395" type="line"/>
			<point x="346" y="0" type="line"/>
			<point x="429" y="0" type="line"/>
			<point x="429" y="464" type="line"/>
			<point x="155" y="464" type="line"/>
			<point x="155" y="365"/>
			<point x="158" y="232"/>
			<point x="123" y="153" type="curve" smooth="yes"/>
			<point x="103" y="106"/>
			<point x="71" y="72"/>
			<point x="13" y="61" type="curve"/>
			<point x="25" y="-9" type="line"/>
			<point x="126" y="1"/>
			<point x="177" y="63"/>
			<point x="203" y="138" type="curve" smooth="yes"/>
			<point x="229" y="213"/>
			<point x="235" y="315"/>
			<point x="235" y="395" type="curve"/>
		</contour>
	</outline>
</glyph>
<glyph name="uni0474" format="2">
	<unicode hex="0474"/>
	<advance width="500"/>
	<outline>
		<contour>
			<point x="435" y="628" type="curve" smooth="yes"/>
			<point x="360" y="628"/>
			<point x="344" y="580"/>
			<point x="326" y="501" type="curve" smooth="yes"/>
			<point x="230" y="81" type="line"/>
			<point x="182" y="248"/>
			<point x="141" y="436"/>
			<point x="102" y="619" type="curve"/>
			<point x="13" y="619" type="line"/>
			<point x="79" y="358"/>
			<point x="122" y="199"/>
			<point x="184" y="0" type="curve"/>
			<point x="282" y="0" type="line"/>
			<point x="402" y="480" type="line" smooth="yes"/>
			<point x="418" y="543"/>
			<point x="421" y="556"/>
			<point x="440" y="556" type="curve" smooth="yes"/>
			<point x="451" y="556"/>
			<point x="461" y="552"/>
			<point x="472" y="540" type="curve"/>
			<point x="509" y="597" type="line"/>
			<point x="491" y="613"/>
			<point x="467" y="628"/>
		</contour>
	</outline>
</glyph>
<glyph name="uni04C5" format="2">
	<unicode hex="04C5"/>
	<advance width="500"/>
	<outline>
		<contour>
			<point x="360" y="549" type="line"/>
			<point x="360" y="0" type="line"/>
			<point x="389" y="0" type="line"/>
			<point x="375" y="-53"/>
			<point x="338" y="-107"/>
			<point x="313" y="-131" type="curve"/>
			<point x="373" y="-169" type="line"/>
			<point x="435" y="-107"/>
			<point x="484" y="-9"/>
			<point x="481" y="74" type="curve"/>
			<point x="442" y="74" type="line"/>
			<point x="442" y="619" type="line"/>
			<point x="158" y="619" type="line"/>
			<point x="157" y="461"/>
			<point x="152" y="299"/>
			<point x="125" y="204" type="curve" smooth="yes"/>
			<point x="99" y="112"/>
			<point x="71" y="72"/>
			<point x="13" y="63" type="curve"/>
			<point x="22" y="-9" type="line"/>
			<point x="123" y="-4"/>
			<point x="172" y="79"/>
			<point x="201" y="186" type="curve" smooth="yes"/>
			<point x="230" y="294"/>
			<point x="234" y="414"/>
			<point x="238" y="549" type="curve"/>
		</contour>
	</outline>
</glyph>
<glyph name="uni1FCC" format="2">
	<unicode hex="1FCC"/>
	<advance width="500"/>
	<outline>
		<contour>
			<point x="500" y="61" type="line"/>
			<point x="458" y="71"/>
			<point x="448" y="87"/>
			<point x="448" y="137" type="curve" smooth="yes"/>
			<point x="448" y="464" type="line"/>
			<point x="375" y="464" type="line"/>
			<point x="375" y="123" type="line" smooth="yes"/>
			<point x="375" y="43"/>
			<point x="395" y="0"/>
			<point x="489" y="-9" type="curve"/>
		</contour>
		<contour>
			<point x="239" y="358" type="line"/>
			<point x="118" y="358" type="line"/>
			<point x="118" y="619" type="line"/>
			<point x="45" y="619" type="line"/>
			<point x="45" y="0" type="line"/>
			<point x="118" y="0" type="line"/>
			<point x="118" y="288" type="line"/>
			<point x="239" y="288" type="line"/>
			<point x="239" y="0" type="line"/>
			<point x="313" y="0" type="line"/>
			<point x="313" y="619" type="line"/>
			<point x="239" y="619" type="line"/>
		</contour>
	</outline>
</glyph>
<glyph name="uni1FDD" format="2">
	<unicode hex="1FDD"/>
	<advance width="500"/>
	<outline>
		<contour>
			<point x="230" y="544" type="line"/>
			<point x="205" y="564"/>
			<point x="188" y="581"/>
			<point x="175" y="604" type="curve"/>
			<point x="196" y="612"/>
			<point x="207" y="629"/>
			<point x="207" y="649" type="curve" smooth="yes"/>
			<point x="207" y="677"/>
			<point x="187" y="697"/>
			<point x="157" y="697" type="curve" smooth="yes"/>
			<point x="129" y="697"/>
			<point x="105" y="678"/>
			<point x="105" y="642" type="curve" smooth="yes"/>
			<point x="105" y="601"/>
			<point x="149" y="550"/>
			<point x="197" y="513" type="curve"/>
		</contour>
		<contour>
			<point x="236" y="655" type="line"/>
			<point x="348" y="513" type="line"/>
			<point x="395" y="547" type="line"/>
			<point x="297" y="699" type="line"/>
		</contour>
	</outline>
</glyph>
<glyph name="uni1FDF" format="2">
	<unicode hex="1FDF"/>
	<advance width="500"/>
	<outline>
		<contour>
			<point x="321" y="544" type="line"/>
			<point x="297" y="561"/>
			<point x="281" y="575"/>
			<point x="271" y="589" type="curve"/>
			<point x="285" y="599"/>
			<point x="296" y="613"/>
			<point x="296" y="629" type="curve" smooth="yes"/>
			<point x="296" y="650"/>
			<point x="281" y="672"/>
			<point x="248" y="672" type="curve" smooth="yes"/>
			<point x="221" y="672"/>
			<point x="200" y="655"/>
			<point x="200" y="620" type="curve" smooth="yes"/>
			<point x="200" y="575"/>
			<point x="253" y="538"/>
			<point x="296" y="513" type="curve"/>
		</contour>
		<contour>
			<point x="250" y="787" type="curve" smooth="yes"/>
			<point x="188" y="787"/>
			<point x="131" y="748"/>
			<point x="131" y="677" type="curve" smooth="yes"/>
			<point x="131" y="675" type="line"/>
			<point x="179" y="675" type="line"/>
			<point x="181" y="703"/>
			<point x="203" y="732"/>
			<point x="250" y="732" type="curve" smooth="yes"/>
			<point x="297" y="732"/>
			<point x="319" y="703"/>
			<point x="321" y="675" type="curve"/>
			<point x="369" y="675" type="line"/>
			<point x="369" y="677" type="line" smooth="yes"/>
			<point x="369" y="748"/>
			<point x="312" y="787"/>
		</contour>
	</outline>
</glyph>
<glyph name="uni1FEF" format="2">
	<unicode hex="1FEF"/>
	<advance width="500"/>
	<outline>
		<contour>
			<point x="152" y="631" type="line"/>
			<point x="312" y="518" type="line"/>
			<point x="347" y="564" type="line"/>
			<point x="199" y="693" type="line"/>
		</contour>
	</outline>
</glyph>
<glyph name="radical" format="2">
	<unicode hex="221A"/>
	<advance width="500"/>
	<outline>
		<contour>
			<point x="51" y="253" type="line"/>
			<point x="116" y="274" type="line"/>
			<point x="159" y="162"/>
			<point x="185" y="83"/>
			<point x="215" y="-13" type="curve"/>
			<point x="289" y="-13" type="line"/>
			<point x="482" y="699" type="line"/>
			<point x="409" y="699" type="line"/>
			<point x="252" y="91" type="line"/>
			<point x="225" y="173"/>
			<point x="199" y="250"/>
			<point x="160" y="356" type="curve"/>
			<point x="29" y="313" type="line"/>
		</contour>
	</outline>
</glyph>
